<svg id="Layer_1" data-name="Layer 1" xmlns="http://www.w3.org/2000/svg" viewBox="0 0 325.71 127.87"><defs><style>.cls-1{fill:#fff;}.cls-2{fill:#427cbf;}.cls-3{fill:#ee6352;}</style></defs><title>NexThreat (WhiteBlue, tagline)</title><g id="_901050496" data-name=" 901050496"><path class="cls-1" d="M393.39,106.23h-7.85v-23h-4V77.65h4v-8.5h7.85v8.5H403v5.54h-9.57ZM346,88.31c-4.25,0-7.78,2.74-7.78,6.91v4.54c0,4.25,3.53,6.55,7.78,6.55h23.9a7.71,7.71,0,0,0,7.7-7.7V86.07c0-4.25-4.75-8.5-9-8.5H341V83h26.42a2.37,2.37,0,0,1,2.3,2.3v3Zm1.8,4.46h22V98.6a2.32,2.32,0,0,1-2.3,2.3H347.81a2.32,2.32,0,0,1-2.3-2.3V95.07A2.37,2.37,0,0,1,347.81,92.77Zm-14.69,8.14v5.4H306.06a7.71,7.71,0,0,1-7.7-7.7V85.28a7.71,7.71,0,0,1,7.7-7.7h22.17a7.71,7.71,0,0,1,7.71,7.7v9.14H305.55V98.6a2.32,2.32,0,0,0,2.3,2.3ZM307.86,83a2.37,2.37,0,0,0-2.3,2.3V90h23.18V85.28a2.38,2.38,0,0,0-2.37-2.3Zm-29.23,5.18a9.59,9.59,0,0,1,9.5-9.5h7.42v6.26H289a3.61,3.61,0,0,0-3.6,3.6v17.71h-6.77Zm-33.19,18.07h-6.7V69.73h6.7v8.93h19.15a9.54,9.54,0,0,1,9.5,9.5v18.07h-7.2V88.52a3.65,3.65,0,0,0-3.6-3.6H245.44ZM234.2,71.39v6.19H216v28.65h-6.77V77.58H193.89L181.29,92c17.57,17.57,35.71,28.15,59.83,33.77,11.38,2.59,27.36,4.1,20.59-7.7l-.58,1.94-4.61-9.29,7.7,7.2-2.16-.07c13.32,15-6.48,15.91-21.31,13.1C208.07,124.81,167.9,94.93,160,62.31c3.1,8,9.43,16.56,17,25.13,4.68-5.4,9.36-10.73,14-16.06Zm-117,32v-32h-6.77V97.59L84.81,71.89c-1.94-1.94-7.56-1.58-7.56,2.3v32H84V80.67l25.13,25.13C110.95,107.6,117.21,107.46,117.21,103.42ZM131.9,83a2.38,2.38,0,0,0-2.38,2.3V90H152.7V85.28a2.37,2.37,0,0,0-2.3-2.3Zm25.27,17.93v5.4H130a7.71,7.71,0,0,1-7.7-7.7V85.28a7.71,7.71,0,0,1,7.7-7.7H152.2a7.77,7.77,0,0,1,7.78,7.7v9.14H129.52V98.6a2.34,2.34,0,0,0,2.38,2.3Z" transform="translate(-77.25 -33.54)"/><path class="cls-2" d="M164.08,43.16c12-14.4,42,3.46,55.37,15.7l.29-1.73,6.12,8.42-8.93-6,1.94-.14c-22.25-16.49-43.34-22.17-52.05-12.1-5.9,6.91-3.24,19.22,5.62,32.25C161.63,65.12,157.82,50.8,164.08,43.16Zm-10.8-3.46c5.76-7.06,17.57-7.85,31.53-3.46-8.42-1.37-22.25-1.58-27.43,6.41-9.14,14.18,8.14,44.57,35.85,68.11,4.32,3.6,8.71,6.91,13,9.86A140.44,140.44,0,0,1,176,98l-7.34,8.42h-8.21l11.16-12.82C152.49,73,144.28,50.65,153.28,39.71Z" transform="translate(-77.25 -33.54)"/></g><path class="cls-1" d="M130.57,151.44H134a4.89,4.89,0,0,1,5.21,4.88v0a4.91,4.91,0,0,1-5.21,4.9h-3.4Zm3.4,8.78a3.8,3.8,0,0,0,4.06-3.85v0a3.82,3.82,0,0,0-4.06-3.88h-2.3v7.76Z" transform="translate(-77.25 -33.54)"/><path class="cls-1" d="M144.5,151.37h1l4.47,9.88h-1.19l-1.15-2.59h-5.34l-1.16,2.59H140Zm2.73,6.29-2.23-5-2.24,5Z" transform="translate(-77.25 -33.54)"/><path class="cls-1" d="M153.26,152.46H150v-1h7.7v1h-3.29v8.78h-1.12Z" transform="translate(-77.25 -33.54)"/><path class="cls-1" d="M162.11,151.37h1l4.47,9.88h-1.19l-1.15-2.59h-5.34l-1.16,2.59h-1.13Zm2.73,6.29-2.23-5-2.24,5Z" transform="translate(-77.25 -33.54)"/><path class="cls-1" d="M169.23,159.77h1.29v1.47h-1.29Z" transform="translate(-77.25 -33.54)"/><path class="cls-1" d="M177.27,151.44h1.11v9.81h-1.11Z" transform="translate(-77.25 -33.54)"/><path class="cls-1" d="M181.25,151.44h1l6.18,7.86v-7.86h1.08v9.81h-.88l-6.33-8v8h-1.08Z" transform="translate(-77.25 -33.54)"/><path class="cls-1" d="M194.9,152.46h-3.29v-1h7.7v1H196v8.78H194.9Z" transform="translate(-77.25 -33.54)"/><path class="cls-1" d="M201.38,151.44h7.09v1h-6v3.35h5.35v1h-5.35v3.43h6.05v1h-7.16Z" transform="translate(-77.25 -33.54)"/><path class="cls-1" d="M210.76,151.44h1.11v8.78h5.52v1h-6.63Z" transform="translate(-77.25 -33.54)"/><path class="cls-1" d="M219.42,151.44h1.11v8.78H226v1h-6.63Z" transform="translate(-77.25 -33.54)"/><path class="cls-1" d="M228.19,151.44h1.11v9.81h-1.11Z" transform="translate(-77.25 -33.54)"/><path class="cls-1" d="M231.73,156.37v0a4.92,4.92,0,0,1,4.92-5.07,5.17,5.17,0,0,1,3.66,1.3l-.71.84a4.17,4.17,0,0,0-3-1.12,3.83,3.83,0,0,0-3.73,4v0a3.79,3.79,0,0,0,3.88,4.08,4.62,4.62,0,0,0,2.83-1V157h-3v-1h4v3.91a5.94,5.94,0,0,1-3.94,1.5A4.81,4.81,0,0,1,231.73,156.37Z" transform="translate(-77.25 -33.54)"/><path class="cls-1" d="M243.14,151.44h7.09v1h-6v3.35h5.35v1h-5.35v3.43h6.05v1h-7.16Z" transform="translate(-77.25 -33.54)"/><path class="cls-1" d="M252.52,151.44h1l6.18,7.86v-7.86h1.08v9.81h-.88l-6.33-8v8h-1.08Z" transform="translate(-77.25 -33.54)"/><path class="cls-1" d="M263.15,156.37v0a4.94,4.94,0,0,1,5-5.07,5.11,5.11,0,0,1,3.82,1.55l-.76.81a4.26,4.26,0,0,0-3.08-1.34,3.84,3.84,0,0,0-3.8,4v0a3.87,3.87,0,0,0,3.8,4,4.26,4.26,0,0,0,3.17-1.42l.73.71a5.11,5.11,0,0,1-3.92,1.72A4.89,4.89,0,0,1,263.15,156.37Z" transform="translate(-77.25 -33.54)"/><path class="cls-1" d="M273.91,151.44H281v1h-6v3.35h5.35v1H275v3.43h6.05v1h-7.16Z" transform="translate(-77.25 -33.54)"/><path class="cls-1" d="M283,159.77h1.29v1.47H283Z" transform="translate(-77.25 -33.54)"/><path class="cls-3" d="M294.07,151.37h2l4.2,9.88H298l-.9-2.2H293l-.9,2.2h-2.2Zm2.27,5.77L295,154l-1.3,3.18Z" transform="translate(-77.25 -33.54)"/><path class="cls-3" d="M300.71,156.37v0a5,5,0,0,1,5.11-5.07,5.06,5.06,0,0,1,3.87,1.51l-1.37,1.58a3.62,3.62,0,0,0-2.51-1.11,2.91,2.91,0,0,0-2.84,3.05v0a2.91,2.91,0,0,0,2.84,3.08,3.54,3.54,0,0,0,2.58-1.15l1.37,1.39a5,5,0,0,1-4,1.75A5,5,0,0,1,300.71,156.37Z" transform="translate(-77.25 -33.54)"/><path class="cls-3" d="M313.76,153.43h-3v-2h8.12v2h-3v7.82h-2.16Z" transform="translate(-77.25 -33.54)"/><path class="cls-3" d="M320.64,151.44h2.16v9.81h-2.16Z" transform="translate(-77.25 -33.54)"/><path class="cls-3" d="M324.81,156.37v0a5.21,5.21,0,0,1,10.42,0v0a5.21,5.21,0,0,1-10.42,0Zm8.17,0v0a3,3,0,0,0-3-3.08,2.93,2.93,0,0,0-2.94,3.05v0a3,3,0,0,0,3,3.08A2.93,2.93,0,0,0,333,156.37Z" transform="translate(-77.25 -33.54)"/><path class="cls-3" d="M337.15,151.44h2l4.59,6v-6h2.13v9.81H344L339.28,155v6.23h-2.13Z" transform="translate(-77.25 -33.54)"/><path class="cls-3" d="M347.9,159h2.27v2.24H347.9Z" transform="translate(-77.25 -33.54)"/></svg>