<svg id="Layer_1" data-name="Layer 1" xmlns="http://www.w3.org/2000/svg" viewBox="0 0 585.15 543.4"><defs><style>.cls-1{fill:#0855a2;}.cls-2{fill:#bb2b31;}.cls-3{fill:#fdfdfd;}</style></defs><title>VOSB_Logo</title><path class="cls-1" d="M170.19,636.59c15.87-11.12,33.26-15.16,51.31-18.24-1.52-2.08-3.72-2.24-5.55-3.11-5.05-2.42-9.21-2.17-14.3,1.25-7.17,4.81-16,5.44-24.57,5.91-13.24.73-26.33-.75-39.29-3.37a13.86,13.86,0,0,1-2-.86c18.1-10,37.33-11.91,57.4-11.47a6,6,0,0,0-3.27-3.9c-3.13-1.59-6.38-3-9.55-4.48a2.08,2.08,0,0,0-1.91.14c-15.54,6.56-31.12,4.8-46.66.09a83,83,0,0,1-21.89-10.1c-.35-.23-.64-.55-1.39-1.2,19-2.64,37.39-4,56,2-1-3-3.15-4.49-5.14-6-2.78-2.15-5.72-4.1-8.49-6.27a2.89,2.89,0,0,0-2.8-.58c-14,3.63-27.21.7-40-5.13-9.31-4.24-18-9.71-27.8-14.76a58.16,58.16,0,0,1,15.91-1.18,116.67,116.67,0,0,1,33.65,6.49c.59.21,1.19.95,1.82.29s.24-1.56-.05-2.24c-.78-1.83-2.36-3-3.77-4.34-2-1.85-4.34-3.34-5.81-5.71a2.25,2.25,0,0,0-2.37-.93,73.71,73.71,0,0,1-40.63-9.22c-8.87-4.9-16.2-11.53-22.87-19.14,18.42,3.34,37.4,4.5,53.56,15.94a9,9,0,0,0-2.26-6c-2.61-3.43-5.67-6.54-7.56-10.47-.69-1.43-1.88-1-2.93-1.06-13.87-.52-26-5.3-36.94-13.91-8.31-6.57-14.51-15-21.91-22.7,7.62-.79,34.19,11.17,52.5,23.49-.19-2.11-1.25-3.65-2.12-5.23-2.39-4.38-5-8.67-6.54-13.45-.36-1.1-.83-1.7-2.11-1.74-17.36-.6-30.55-9.06-41.36-22-5.22-6.25-10.46-12.47-15.5-19,21,3.94,37.62,15.59,52.47,30.47.76-1.77,0-3.27-.56-4.81-1.51-4.51-3.1-9-4.51-13.55a3,3,0,0,0-2.4-2.46C50.5,450.35,38.22,439.44,28.1,425.6c-4.68-6.41-9.05-13-13.26-19.89,20.89,8.29,39.54,19.4,51,39.87,1.33-1.57.94-3.23.79-4.75-.41-4.18-2.38-8-2.72-12.24-.08-1-1-1.44-1.85-1.81-14.6-6.36-23.48-18.11-30.28-31.9a277.59,277.59,0,0,1-10.94-26.55c9,3,23.71,18.76,39.84,42.48.79-1.78.4-3.42.35-5-.13-4.2-.3-8.41-.44-12.61,0-1.12.1-2.1-1.19-2.87-14.81-8.81-22.25-22.87-27.14-38.64a160.65,160.65,0,0,1-5-23.27,12.2,12.2,0,0,1,.1-1.85c13.62,14,24.91,28.82,32,47a8.37,8.37,0,0,0,1.32-5.17c.07-2.27-.36-4.66.19-6.79,1-4-.27-6.56-3.27-9.3-8.95-8.17-14.18-18.73-18.07-30-3.8-11.05-5.11-22.53-5.53-34.43,3.93,5.1,7.93,10.13,11.76,15.3,7.79,10.53,13.49,22,15.94,35,.14.74-.19,2.13,1.07,2.16s1.64-1,2-2c.8-2.58.13-5.48,1.72-7.93.16-.24-.57-1.13-1-1.65-9.2-12.19-13.08-26.24-14.5-41.19a133.1,133.1,0,0,1,.06-24.51c.13-1.46.36-2.9.64-5.11,12.53,16,17.29,34,18.39,53.31,3.71-4.2,4.25-9.46,5.73-14.33.1-.32-.29-.84-.55-1.21-6-8.58-7.5-18.42-7.75-28.5a119.66,119.66,0,0,1,6.68-42.15c.17-.51.08-1.16,1.08-1.37,4.46,8.67,6,18.12,6.9,27.69a196.79,196.79,0,0,1,.61,29.16c2.43-2.48,3.31-4.92,4.4-7.21,1.56-3.28,4-6.38,4.84-9.66s-2.64-6.36-3.69-9.79c-3.75-12.2-3.09-24.48-.86-36.77a112.89,112.89,0,0,1,7.27-24.41c.56-1.31.89-2.78,2.43-4.14a127.83,127.83,0,0,1,2.35,61.32c3.3-2,4.61-5.32,6.91-7.78,3.57-3.82,4.15-7.58,2.52-12.78-3.44-11-2-22.28.94-33.27a126.6,126.6,0,0,1,12.21-29.11c.35-.62.44-1.69,1.53-1.54.89.12.88,1,.93,1.6,1.57,18.73,2.69,37.43-4.88,55.61,2.43-.28,3.86-2.13,5.39-3.57,5.14-4.79,8.18-9.77,7.14-17.85-1.94-15.08,4.27-28.46,12.3-40.92,3.2-5,6.6-9.8,9.94-14.67.48-.7.73-1.68,2.13-1.92,1.66,19.41-2.86,37.31-12.29,54.1,1.59.8,2.59-.23,3.61-.82a44.8,44.8,0,0,0,5.62-4.4c4-3.22,5.47-7,5.46-12.32,0-18.72,8.5-34,20.55-47.57,3.23-3.65,6.43-7.33,9.7-11.06.88,4.45-3.46,23.59-7.73,35.11a93.08,93.08,0,0,1-18.68,30.63,141.51,141.51,0,0,1,27.88-4,128.28,128.28,0,0,1,28.76,2.13,94.42,94.42,0,0,1-19.14,9.46c-11,4.24-22.33,6.89-34.21,6.53a50.79,50.79,0,0,1-13.44-2,6.21,6.21,0,0,0-6,1.12c-4.87,3.47-8.73,7.89-12.86,13.06,16.7-5.28,33-9.23,51-8.63-12.31,9.16-24.18,17.33-38.2,21.79a80.27,80.27,0,0,1-24.09,4c-2.4,0-3.81,1.24-5.22,2.69-4.78,4.94-8.32,10.75-12.16,17.71,14.74-6.69,27.15-16.43,42.67-19,.46,1.28-.55,1.74-1,2.36-8.92,11.08-17.9,22.08-29.94,30.05a67.89,67.89,0,0,1-21.3,9.61,6.67,6.67,0,0,0-4.39,3.32c-3.28,5.25-4.77,11.23-7,17,11.21-9.65,22.39-19.31,34.74-29a86.22,86.22,0,0,1-13,30c-7.5,11.13-17,20.11-29,26.24-.77.39-1.79.53-1.91,1.7-.81,7.79-3.9,15.2-3.81,24.12,8.63-14,17.92-26.53,29.67-38.12A108.93,108.93,0,0,1,90.79,346.8C86,356.9,79.91,366.08,71.15,373.25a3.16,3.16,0,0,0-1.3,2.62c0,6.89,0,13.79.3,20.76,6.37-12.65,11-26,17.54-39,1.3,3.5,1.33,6.74,1.49,9.86.52,9.77.66,19.55-1.14,29.23-2.12,11.39-5,22.53-12.18,32a4.07,4.07,0,0,0-.46,3.88c1.11,3.92,2.23,7.83,3.47,12.16,2.78-15.67,5.65-30.92,11.5-46a54.22,54.22,0,0,1,4.09,15.09c2.36,15.85,2.94,31.66-1.59,47.3a36.5,36.5,0,0,1-3.69,8.38c-.5.85-1.15,1.54-.55,2.75,2.22,4.55,4.3,9.16,6.78,14.51.88-15.92.94-31.11,4.08-46.7a43.82,43.82,0,0,1,6.58,12.3c6,16.28,8.92,33,4.38,50.06-1.44,5.4-.46,9.26,2.55,13.4A74.64,74.64,0,0,0,121.08,526c-3.23-17.69-4.49-34.65-.9-52.52,8.3,16.15,16.44,31.52,16.85,49.45.1,4.38-.78,8.81-1.42,13.19-.9,6.2,1.45,10.86,6.39,14.4,2.76,2,5.57,3.9,8.56,6-4.68-15.55-9.38-31-11.06-48a62.64,62.64,0,0,1,12.2,12.73c10.56,14.22,16.61,30.14,17.51,47.91a5.07,5.07,0,0,0,1.49,4c5.14,4.67,11.23,7.82,17.65,10.81q-2.7-4.61-5.41-9.21c-5.66-9.6-10.82-19.45-14.08-30.16-.37-1.21-1.53-2.77-.36-3.69s2.91-.14,4.12.72a62.07,62.07,0,0,1,12.86,12c2.11,2.67,5.06,4.62,7.26,7.34,7.83,9.66,14,20.13,16.35,32.51.36,1.89,1.65,2.55,3,3.33,8.88,5,18.71,7.47,28.47,10.3A93.82,93.82,0,0,1,220.47,586a208.5,208.5,0,0,1-15.14-25.74,83.18,83.18,0,0,1,16.35,8.43c15.25,9.95,27,22.78,33.35,40.16.86,2.37.49,3.75-1.52,5.44C239.59,626,224,634.2,206,637.18A105,105,0,0,1,170.19,636.59Z" transform="translate(-14.85 -121.13)"/><path class="cls-1" d="M529.64,291.42a68,68,0,0,0-6.13-15.09c-.84-1.47-1.73-2.82-3.65-3.3-19.31-4.87-33.48-17.13-45.77-32-2.53-3.07-5-6.18-7.49-9.28a4.82,4.82,0,0,1-.33-1.11c7.93,1.37,14.93,4.55,21.82,8s13.28,7.75,21.24,11.07c-4.31-7.4-8-14.13-14-19.27a4.51,4.51,0,0,0-3.15-.93c-23.87-.54-43.62-11.08-62.28-25.85a89.82,89.82,0,0,1,19.22.91,148,148,0,0,1,28.39,6.8c.42.14.8.52,1.22.16a1,1,0,0,0,0-1.52c-3.88-4.77-8-9.34-13.49-12.32a2.92,2.92,0,0,0-2-.07c-19.24,5.41-37.32,1-55-6.49-4.48-1.89-8.77-4.23-14.1-6.83a78.58,78.58,0,0,1,13.05-2,129.22,129.22,0,0,1,37.49,2.17,38.38,38.38,0,0,1,4,1c.74.24,1.32,1.76,2.18.62s-.3-1.89-1-2.61c-13.49-14.39-19.46-32.21-23.36-51-.64-3.1-1.12-6.24-1.81-9.33-.18-.78-.21-1.33.44-1.75.81-.52,1.28.3,1.64.69,12.9,14.07,25.36,28.41,28,48.4.48,3.6,1.32,7.33.83,10.84-.79,5.66,3.28,8.2,6.42,11,2.08,1.87,4.44,4.26,8.34,4.39-9.68-17.17-14.29-35.18-12.4-55.42,3.36,4.87,6.38,9.16,9.31,13.51,7.21,10.73,13.4,21.9,14.9,35.07a46.45,46.45,0,0,1,0,13.6c-.71,3.89,0,6.68,3,9.36,2.63,2.42,4.49,5.66,7.66,7.54.52.31,1,.91,1.92.56-7-16.55-6.47-33.88-5.27-51.25.11-1.64-.51-4.25,1.59-4.68,1.93-.39,2.32,2.18,3,3.59,7,13.85,12.89,28.07,13.18,44a55.83,55.83,0,0,1-2.88,19.76c-.35,1-1.08,1.94-.15,3.17,4,5.35,7.92,10.77,12.28,16.73-6.11-22.18-5-43.58.76-65.37,1.62,1.52,2,3.19,2.62,4.68,5.61,13.92,9.05,28.31,8.88,43.41-.1,8.61-1.45,17-5.81,24.57a3.37,3.37,0,0,0,.21,4.26c2.35,3.23,3.65,7,5.3,10.65.53,1.16,1.34,2.12,2.4,2,1.36-.21.71-1.69.7-2.56-.11-13.43.15-26.83,3.41-40a46.46,46.46,0,0,1,4.57-12.17,74.72,74.72,0,0,1,4.68,15.91c2.85,13.91,4.05,27.88,1.15,42a40.4,40.4,0,0,1-5.89,14.41c-.37.55-1,1.34-.81,1.77,1.73,4.69,2.07,9.95,5.91,14.7,1.11-20,5.7-38,18.25-54a117.9,117.9,0,0,1,.88,27.74c-1.08,14.08-3.85,27.86-12.41,39.42-3.33,4.5-2.21,8.39-1.59,12.75.15,1.06.55,2.44,2,2.35s1-1.59,1.15-2.46c3.17-16.19,11.62-29.66,21.73-42.27,1.89-2.36,3.79-4.7,6.29-7.81A120.2,120.2,0,0,1,578,309.43c-3.42,16.09-9.66,30.76-21.89,42.26-2.09,2-3.28,3.52-2.73,6.76.72,4.29.09,8.79,1.58,13.24,7.26-17.84,18.75-32.64,32.49-47a109.19,109.19,0,0,1-2.63,15.89c-3.17,14-7.85,27.26-17.54,38.27a45.79,45.79,0,0,1-10.88,9.19,4,4,0,0,0-2.29,4.33c.47,5.5-1.13,11-.33,17.28,2.54-4,4.61-7.43,6.87-10.75,8.34-12.22,18.22-22.94,30.67-31.13a13.73,13.73,0,0,1,1.5-.75l.51.49c-5.57,16.14-11.57,32.06-23.19,45.09a48.76,48.76,0,0,1-16.62,12.21,4.37,4.37,0,0,0-2.8,3.42c-.64,3-1.54,5.92-2.34,8.87-.61,2.22-.52,4.43,0,7.68,11.79-21.11,30.42-32.28,51.67-40.29-3.86,5.65-7.62,11.36-11.61,16.92-7.81,10.89-16.55,20.82-29,26.73a72.53,72.53,0,0,1-12.48,4.39c-.86.23-1.91.1-2.27,1.17-2.08,6.15-4.12,12.32-5.87,18.74,8.17-6.27,15.62-13.36,24.48-18.6s18.24-9.53,28.88-11.4c-.77,2.11-2.32,3.16-3.47,4.49-6.38,7.38-12.21,15.25-19.27,22.05a51.63,51.63,0,0,1-33.51,14.84c-1.92.12-3,.61-3.57,2.59-1.23,4.29-3.74,8-5.8,11.91a15,15,0,0,0-1.9,5.55l4-2.84c14-10.07,29.89-16.09,46.4-20.62.66-.18,1.24-.68,1.68.24.26.53-.15.81-.48,1.06-6.35,4.85-10.67,11.64-16.36,17.14-11.86,11.46-25.76,18-42.33,18.57-1.1,0-2.12,0-2.94,1.21-2.42,3.59-5.06,7-7.56,10.56-1.14,1.61-2.28,3.28-2.19,5.79,16.27-11.45,35.21-12.65,54.37-16.5a85.2,85.2,0,0,1-14.86,13.95c-14,10.31-29.58,15.71-47.07,15-2.82-.12-4.51.62-6.37,3.08s-5.13,4-7.16,6.57a2.73,2.73,0,0,0-.29,3.18c.4.68,1.22.16,1.82-.11,6.67-2.94,13.84-3.95,20.92-5.14a89.78,89.78,0,0,1,24.11-.77c.79.08,1.59.13,2.36.28a7.16,7.16,0,0,1,1.4.66c-12.61,6.42-24.26,14.25-37.68,18.49a54,54,0,0,1-29.23,1.37,4.29,4.29,0,0,0-4.29,1.06,88.42,88.42,0,0,1-7.15,5.22,19.49,19.49,0,0,0-6.19,6.63c18.71-6.12,37.21-4.81,55.8-2.24-.05,1.43-1.22,1.71-2,2.17-16.52,9.51-34.06,14.85-53.36,12.84a46.08,46.08,0,0,1-12.82-3.25,12.73,12.73,0,0,0-1.55-.69c-1.55-.4-13.46,5.3-14.11,6.79-.9,2.1.74,1.55,1.73,1.54A155,155,0,0,1,449,606.77c10.24,1.66,20.09,4.51,29.74,10-4.57,1.59-8.77,2-12.93,2.61-14,2-28,2.75-42-.29-5.81-1.26-11.37-3.17-16-7.12-.58-.49-1.24-1.38-2-.89-4,2.41-9,2.27-13.23,5.63,18.2,3.27,35.76,7.09,51.57,18.33a102.54,102.54,0,0,1-34.66.81c-18.72-2.89-34.82-11.31-49.11-23.52a3.4,3.4,0,0,1-1.21-4.33c5.37-15.75,15.53-27.82,28.74-37.54a89.36,89.36,0,0,1,20.9-11.68c-1.34,3.94-3.4,7-5.19,10.15-7.18,12.57-15,24.7-26.62,33.75-.36.28-1.13.54-.73,1.24.28.49.73.63,1.42.44,9.1-2.43,18.06-5.2,26.22-10.08a3,3,0,0,0,1.4-2.2c2.85-15.2,11.16-27.38,21.49-38.38,4-4.21,8.15-8.19,12.27-12.25a5.47,5.47,0,0,1,1.46-.73c1.71-.84,3.8-2.59,5.3-1.35,1.67,1.38-.27,3.52-.81,5.23-3.94,12.57-10.6,23.81-17.35,35-.68,1.13-1.31,2.3-2.36,4.15,5.71-3.57,11-6.36,15.78-9.89a9.64,9.64,0,0,0,4.35-7.84c1-16.76,6.81-31.85,16.68-45.38a78.74,78.74,0,0,1,13-13.9c-1.91,16.94-6.27,32.38-11.28,48.25l8.58-5.94c4.91-3.39,7.79-8.12,6.49-14-4.49-20.3,2.7-38,11.53-55.46a53,53,0,0,1,3.79-6.64c3.47,17,2.53,33.88-.79,51.23,4-3.5,6.38-7.7,9.17-11.57,2.5-3.47,2.76-6.68,1.6-10.92-3.78-13.82-2.43-27.69,1.15-41.4a74.38,74.38,0,0,1,6.32-16.49c.89-1.66,1.94-3.24,3.37-5.63,2.89,15.86,3.59,31,3.86,46.83,2.29-3,2.75-6.16,4.37-8.72,2.61-4.11,2.58-7.71.2-12.34-4.21-8.17-4.86-17.4-5.05-26.53-.27-13.12.75-26.09,5-38.63.1-.3.28-.57.7-1.43,6,14.7,8.68,29.73,11.46,45.57,1.51-5,3.37-9.11,3.83-13.69a3.12,3.12,0,0,0-.82-2.17c-5.67-7.63-8.74-16.4-10.89-25.51-3.44-14.58-3.41-29.3-1.38-44.06,0-.18.25-.33.71-.91,6.56,12.64,11.07,26,17.66,38.52,0-7.06,0-14.12,0-21.18a2.56,2.56,0,0,0-1-2c-3-2.76-6.13-5.41-8.88-8.4-3.26-3.56-5.39-8-7.78-12.11a107.3,107.3,0,0,1-13-39.5c-.13-1-.1-2-.18-3.86A193.82,193.82,0,0,1,543,345.76c.6-5.76-1.54-10.43-1.87-15.27-.46-6.89-4-10.44-9.78-14C513,305,502.06,287.72,496.15,267.13c-.2-.7-.59-1.52,0-2.29l0,0a12.3,12.3,0,0,1,4.87,3.57c3,3.14,6.56,5.54,9.93,8.21,6.21,4.92,12.11,10.24,18.13,15.39.27.37.49,1.12,1.06.59C530.51,292.27,530.11,291.73,529.64,291.42Z" transform="translate(-14.85 -121.13)"/><path class="cls-2" d="M419,384.65c4.82,1.08,9,2.37,12.28,5.56,9.56,9.33,6.09,25-6.7,30.53a42.64,42.64,0,0,1-16.31,3c-10.57.21-21.14.09-31.71.07-1.38,0-3,.48-3.08-2,0-2.07.7-2.7,2.73-2.82,3.2-.2,5.09-1.9,5.47-5.35a102.63,102.63,0,0,0,.27-10.9q.07-17.56,0-35.12c0-1.7-.22-3.39-.37-5.09-.26-2.85-1.65-4.69-4.66-4.87-2.21-.13-2.85-1.29-2.72-3.33.15-2.35,1.82-1.54,3-1.54q17.39,0,34.78.09a32.18,32.18,0,0,1,10,1.68c6.64,2.22,10.16,6.59,10.5,13.13.35,6.72-2.71,11.53-8.58,14.63C422.46,383.14,420.91,383.76,419,384.65ZM399.46,400a84,84,0,0,0,.38,10.8c.32,2.74.58,5.62,3.58,6.8s5.85.27,8.31-1.6c4.94-3.74,6.52-11.78,3.85-19.08-2-5.54-7.26-8.7-13.75-8.52-1.74,0-2.47.51-2.4,2.31C399.53,393.49,399.46,396.22,399.46,400Zm14.43-29.46c0-7.86-4.31-12.59-10.94-12.14-2,.14-3.06.82-3.23,3-.52,6.69-.08,13.38-.25,20.07,0,1.57.79,1.78,2.12,1.89C409,384,413.88,379,413.89,370.59Z" transform="translate(-14.85 -121.13)"/><path class="cls-2" d="M315.92,388.28c-.09,22-15.25,37.12-37.08,37-20.93-.08-36.1-15.18-36-35.83.11-22.43,15.59-38.1,37.77-38.25C301.36,351.11,316,366.48,315.92,388.28Zm-20.41.16c-.06-5.78-.82-14.34-5-22.21-2.72-5.17-6.36-9.46-12.81-9s-9.68,5.15-11.57,10.63c-4.38,12.69-3.78,25.43.4,38.06A24.9,24.9,0,0,0,274,417c5.9,5.17,15.16,2.33,18.52-5.92C295.09,404.76,295.51,398.07,295.51,388.43Z" transform="translate(-14.85 -121.13)"/><path class="cls-2" d="M349.46,351.29c4.07-.14,8.78,1.13,13.51,2.33a2.37,2.37,0,0,1,2,2.35c.46,3.95,1,7.89,1.53,11.82.28,1.89.19,3.35-2.09,3.88s-2.72-1.14-3.34-2.49a34.92,34.92,0,0,0-3.51-6.6c-3-4-6.94-6.14-12.11-5.2-3.91.71-6.05,3.24-7.12,6.93s.32,6.47,2.85,8.86,6,4.05,9.33,5.52c4.37,1.93,8.66,4,12.3,7.17,11.06,9.69,9.75,27.45-2.87,34.93-11.43,6.77-23.27,5.47-35,.61a2.42,2.42,0,0,1-1.49-2.07c-.9-4.8-1.74-9.61-2.87-14.35-.52-2.19.42-2.65,2.17-3.25,2-.69,2.77,0,3.5,1.78,2.39,5.92,5.9,11.06,11.61,14.24,6.68,3.72,14.1,1.29,16-5.07a11.88,11.88,0,0,0-4-12.88c-2.92-2.45-6.42-3.82-9.78-5.45-4.72-2.29-9.36-4.76-12.84-8.79-7.94-9.18-5.11-24.15,5.62-30.41C337.76,352.32,343.07,351.4,349.46,351.29Z" transform="translate(-14.85 -121.13)"/><path class="cls-2" d="M219.44,399.43q4.53-13.12,9-26.24c1.1-3.22,2.23-6.43,3.16-9.7,1.2-4.22.42-5.21-3.89-5.84-1.4-.2-3.34.31-3.39-2.26,0-1.82.34-2.66,2.4-2.62,7.27.11,14.55.07,21.82,0,1.41,0,2.41.15,2.42,2,0,1.58-.25,2.7-2.06,2.83-4,.29-6.23,2.82-7.77,6.23-7.61,16.86-14,34.22-20.73,51.42a42.73,42.73,0,0,0-2.13,5.73c-.68,2.92-2.24,3.65-5.22,3.83-4,.24-5.33-1.32-6.62-4.81-6.61-18-13.52-35.85-20.42-53.72-1.6-4.16-3.42-8.29-8.83-8.77-1.78-.16-1.51-1.63-1.56-2.88-.07-1.64.92-1.82,2.2-1.82q15.51,0,31,0c1.38,0,2.16.4,2.06,1.94-.08,1.24.12,2.34-1.66,2.8-6.15,1.57-6.21,1.68-3.94,7.66,4.34,11.44,8.77,22.84,13.17,34.26Z" transform="translate(-14.85 -121.13)"/><path class="cls-2" d="M306.39,646c.89-2.75,1.67-5,2.37-7.35,2.93-9.77,5.87-19.53,8.7-29.33.56-1.93,1.4-2.77,3.53-2.69,4.2.17,8.42.16,12.62,0,2.52-.1,3.27.64,2.17,3-5.45,11.57-9.07,23.85-13.62,35.77-2,5.34-4.31,10.61-5.63,16.22a3.15,3.15,0,0,1-3.63,2.71c-4.65-.21-9.32-.1-14,0-1.69,0-2.42-.47-3.06-2.25q-9.41-26.15-19.17-52.17c-.87-2.34-.61-3.3,2.12-3.2,4.09.15,8.2.22,12.28,0,2.24-.12,3.14.7,3.76,2.73,3.58,11.82,7.27,23.6,10.93,35.4A11.87,11.87,0,0,0,306.39,646Z" transform="translate(-14.85 -121.13)"/><path class="cls-2" d="M332.85,647c0-4.66.09-9.32,0-14-.06-2.21.36-3.23,2.94-3.17,7.61.18,15.23.13,22.85,0,2,0,2.5.65,2.48,2.52,0,4.5-.62,5.19-4.93,5.19-3.52,0-7.05.11-10.57,0-1.89-.07-2.23.71-2.25,2.38s.46,2.38,2.29,2.32c3.86-.13,7.73.07,11.59-.07,1.93-.07,2.72.5,2.48,2.46a12.47,12.47,0,0,0,0,3.06c.25,1.91-.67,2.25-2.35,2.2-3.86-.1-7.74.15-11.59-.1-2.94-.19-2.24,1.68-2.38,3.27-.15,1.83.07,2.93,2.45,2.82,4.42-.21,8.87,0,13.3-.1,2.08-.06,2.69.58,2.69,2.68,0,5.76.12,5.76-5.75,5.76-6.71,0-13.42-.1-20.12.06-2.33.05-3.21-.52-3.12-3,.18-4.77.05-9.55.05-14.32Z" transform="translate(-14.85 -121.13)"/><path class="cls-2" d="M260,646.91c.08,3.21-.45,6.54,3.23,8.52a6,6,0,0,0,8.25-3c.74-1.83,1.35-4.49,4.06-1.55.28.3,1.09.11,1.65.17,5,.56,5.71,2.12,3,6.36-3.49,5.36-11.94,8.13-18.67,6.69-10.22-2.19-14.36-14-11.62-23.46s13.75-13.32,22.4-10.48a12.9,12.9,0,0,1,8.36,7.63c.21.5.68,1.14.53,1.51-.94,2.32-3.36,1.76-5.13,2.23-1.35.36-3.31,2.08-4.48-.26-1.48-3-3.86-4.4-6.91-3.5-3.24,1-4.8,3.57-4.62,7.05C260,645.55,260,646.23,260,646.91Z" transform="translate(-14.85 -121.13)"/><path class="cls-2" d="M437.72,258.17c1.16,5,.19,8-3,10a8.88,8.88,0,0,1-10.44-1.1c-2.78-2.33-5.3-5-8.06-7.33-1.65-1.41-1.43-2.4,0-3.83,3.73-3.81,7.43-7.66,10.94-11.67,1.8-2.06,3.8-3.91,5.62-5.92,1.24-1.38,2.08-1.2,3.24-.07,2.44,2.38,4.94,4.69,7.4,7.05s3.93,5.18,2.49,8.54S441.83,258.9,437.72,258.17Zm-2.83,2.49a5.27,5.27,0,0,0-.35-1.46c-1.76-3.28-4.78-5.4-7.41-7.88-.82-.77-1.58.14-2,.61-1.65,1.64-3.12,3.45-4.72,5.14-.75.79-.53,1.37.15,2,2.11,1.89,4.15,3.86,6.35,5.63a4.47,4.47,0,0,0,5.12.46A5,5,0,0,0,434.89,260.66Zm7.75-10c-1.06-3.66-4.3-6.08-7.31-8.24-1.58-1.13-2.6,2.05-4,3.08-.54.39-.9,1-1.43,1.44-1,.74-1,1.5-.13,2.25a62.32,62.32,0,0,0,6.13,5.33C438.54,256.39,442.58,254.16,442.64,250.68Z" transform="translate(-14.85 -121.13)"/><path class="cls-2" d="M209.71,247.79c-.06,6.84-6.87,13.63-13.64,13.6-7.77,0-16.18-9.25-16-17.56.14-6.88,7.13-13,14.38-13.22C200.58,230.46,210,238.72,209.71,247.79Zm-25.64-3.88c0,5.64,5.6,12.42,11.17,13.41s11.65-4.6,10.73-10.17c-.87-5.31-3.69-9.48-8.72-11.76A9.41,9.41,0,0,0,184.07,243.91Z" transform="translate(-14.85 -121.13)"/><path class="cls-2" d="M325.33,221.26c-6.16-.08-10.7-3.3-11.37-8.18-.15-1.09-.84-2.74,1-3.07,1.5-.27,2.33.51,2.76,2.19,1.29,5.06,7.85,7.48,12.25,4.68a4.39,4.39,0,0,0-.56-7.76c-2.34-1.12-4.85-1.9-7.29-2.81-4.83-1.82-6.46-3.88-6.13-7.76.36-4.2,3.17-7.13,7.62-7.92,5.74-1,11.77,2.45,12.54,7.31.15,1,.82,2.42-.88,2.79-1.5.33-2.45-.15-3-1.89a7.17,7.17,0,0,0-9.82-4.28,4.29,4.29,0,0,0-2.7,4,3.49,3.49,0,0,0,2.52,3.64c2.12.81,4.23,1.61,6.36,2.38,6,2.17,8,5,7,9.89C334.78,218.91,331.1,221.33,325.33,221.26Z" transform="translate(-14.85 -121.13)"/><path class="cls-2" d="M365.86,213.58c.18-2.41-.81-3.55-2.55-4-2.34-.58-4.33.07-5.46,2.31-1.49,3-1.8,6.32-3,9.36-.61,1.53.39,5-3,4s-.57-3.38-.37-4.94c.38-2.89,1.56-5.66,2.31-8.51.56-2.14,1-4.5-1.75-5.43a4.57,4.57,0,0,0-6.13,2.82c-1.37,3.59-2.25,7.36-3.41,11-.27.85-.11,2.32-1.63,2.11-1.34-.19-2.58-.44-1.92-2.57,1.71-5.52,3.2-11.1,4.64-16.69.74-2.86,3.22-1.37,3.32-.73.41,2.55,1.72,1.22,2.82,1,3.13-.53,6-.16,7.65,2.92.73,1.37,1.35,1.06,2.38.6a7.11,7.11,0,0,1,8.21,1.33c2.23,2,1.88,4.68,1.17,7.29q-1.52,5.57-3,11.15c-.33,1.22-.55,2.47-2.41,2-2.15-.51-1.49-1.94-1.15-3.2.89-3.28,1.87-6.54,2.79-9.81C365.61,214.87,365.77,214,365.86,213.58Z" transform="translate(-14.85 -121.13)"/><path class="cls-2" d="M229.53,231.88c-1.1-4.15-2.07-8.34-3.35-12.44-.56-1.79.07-2.67,1.52-3.08,1.93-.54,1.49,1.27,1.73,2.17,1.44,5.48,2.76,11,4.21,16.46.36,1.37.28,2.26-1.09,3.1s-2.21.3-3.19-.65c-3.14-3-5.76-6.6-9.9-9.66l3.66,13c.33,1.18.92,2.27-.79,3.1-1.33.65-2.18.67-3.26-.43-4.05-4.13-8.21-8.14-12.27-12.26-.57-.58-2.16-1.15-.84-2.36,1.06-1,2.22-1.44,3.51,0,2.66,2.95,5.45,5.78,8.2,8.65.36.37.64,1,1.35.76l.11.51.27-.16-.43-.31c-.22-4-2-7.6-2.9-11.43-.36-1.58-1.46-3.06.76-4.38,2.37-1.42,3,.69,4.09,1.67,2.87,2.55,5.09,5.76,8.18,8.1l.47.79A.79.79,0,0,0,229.53,231.88Z" transform="translate(-14.85 -121.13)"/><path class="cls-2" d="M143.55,440.86c-1.06-3.09-1.29-6.94-3.33-8.82s-6-.41-10-1c2.4-1.59,4.2-2.84,6.06-4s2.55-2.29,1.64-4.47a59.82,59.82,0,0,1-1.93-6.7c2.65.84,4.3,2.61,6.15,4,1.61,1.22,2.82,1.4,4.45,0s3.72-2.56,6-4.06c-.19,2.92-1.4,5.08-2.22,7.32a2.68,2.68,0,0,0,1.2,3.7c2,1.29,3.74,2.82,6.2,4.7-3,0-5.24.3-7.36-.08-2.73-.49-3.56.87-4.23,3.05A21.77,21.77,0,0,1,143.55,440.86Z" transform="translate(-14.85 -121.13)"/><path class="cls-2" d="M434.08,512c-.43-2.27.23-4.47.55-6.66s-.25-3.4-2.36-4.16-4.12-1.87-6.9-3.17c3.11-.68,5.5-1.38,7.94-1.67,1.92-.23,2.46-1.2,2.6-2.88.19-2.37.5-4.73.84-7.88a64.88,64.88,0,0,1,3.72,6.52c.94,2.24,2.3,2.73,4.52,2.18s4.58-.85,7.59-1.39c-1.79,1.92-3,3.42-4.41,4.68-2.25,2-3.06,3.93-.94,6.61.89,1.12,2.73,2.76,1.48,4s-3-.54-4.17-1.3c-2.48-1.62-4.15-1.33-6,.94A38,38,0,0,1,434.08,512Z" transform="translate(-14.85 -121.13)"/><path class="cls-2" d="M175.62,467.81c-3.81.95-7.15,1-9.36,2.55s-.79,5.37-1.66,8.05c-.16.5-.22,1-.43,2a38.21,38.21,0,0,1-3.18-5.27c-1.17-3-3.07-3.51-5.87-2.6-1.71.55-3.49.85-6.21,1.5,1.93-2.28,3.13-4.09,4.72-5.46,2-1.75,1.8-3.28.43-5.23-1.17-1.65-2.08-3.49-3.33-5.63a15,15,0,0,1,6.12,2.15c2.45,1.29,4.18.81,5.76-1.4a61.5,61.5,0,0,1,4.16-4.71c.74,2.76-.17,5-.33,7.24-.14,2,.4,3.13,2.36,3.81S172.87,466.58,175.62,467.81Z" transform="translate(-14.85 -121.13)"/><path class="cls-2" d="M475.21,455c-1.65,3.43-4.22,6.31-3.91,8.82s3.54,4.57,5.7,7.08c-2.67.45-4.85-.3-7-.82a2.69,2.69,0,0,0-3.53,1.6c-1.16,2.13-2,4.48-3.95,6.68a46.12,46.12,0,0,1-1.13-7c0-2.55-1.3-3.28-3.46-3.57s-4.23-.74-6.66-1.17c1.83-2.1,4.34-2.5,6.44-3.57,1.59-.81,2.43-1.68,1.94-3.69-.56-2.29-.68-4.69-1.09-7.78,2.1,2.16,3.87,3.85,5.47,5.68,1.31,1.51,2.53,1.86,4.37.79A74.4,74.4,0,0,1,475.21,455Z" transform="translate(-14.85 -121.13)"/><path class="cls-2" d="M291.7,200.41c-.23-2.47-.35-4.83-.69-7.15-.2-1.37,0-2.12,1.53-2.36s1.63.86,1.75,1.84c1,8.46,2,16.93,3,25.39.26,2.13-1.74,2.24-2.3,1.62-1.67-1.82-2.35-.37-3.48.47-3.27,2.43-7.87,1.68-10.71-1.63-3.26-3.8-3.83-11.11-1.2-15.39C282,199.37,285,198.61,291.7,200.41Zm1.48,10.83a15.8,15.8,0,0,0-1.44-6.07,5,5,0,0,0-4.7-2.8,5.06,5.06,0,0,0-4.57,3,11,11,0,0,0-.32,7.62c1,3.85,3.34,5.74,6.34,5.34C291.23,218,293.16,215.11,293.18,211.24Z" transform="translate(-14.85 -121.13)"/><path class="cls-2" d="M175.81,494.4a21,21,0,0,1,4.66.62c3.85,1.42,5.94-.05,7.18-3.67a43.77,43.77,0,0,1,2.49-5c.56,3.11,1.17,5.65,1.42,8.23.16,1.7.79,2.3,2.46,2.46,2.36.23,4.68.77,7.94,1.34-2.84,1.5-4.89,2.72-7.05,3.68a2.76,2.76,0,0,0-1.9,3.43c.42,2.46.67,4.94,1,7.41l-.9.82c-1.44-1.74-3-3.38-4.28-5.23-1.55-2.24-3.16-1.88-5.13-.68-1.64,1-3.42,1.75-5.54,2.81a16.11,16.11,0,0,1,2.74-6.29c1.08-1.8,1.36-3.14-.59-4.55s-3.43-2.92-5.13-4.4Z" transform="translate(-14.85 -121.13)"/><path class="cls-2" d="M493.47,427.79c-2.1.13-4.2.38-6.3.36s-3.29.62-3.58,3a60.46,60.46,0,0,1-1.9,7.42c-1.28-2.92-2.39-5.12-3.21-7.42-.66-1.85-1.7-2.35-3.6-2-2.11.34-4.27.33-6.74.5.89-2.6,3.14-3.43,4.74-4.79s2.08-2.36,1.08-4.26-1.73-4.11-3-7.21c2.81,1.7,4.85,2.74,6.67,4.08s3,1,4.43-.34c1.72-1.6,3.62-3,6.13-5.06-.64,2.69-.94,4.58-1.56,6.36-1,2.76-.51,4.68,2.38,5.91a37.39,37.39,0,0,1,4.6,2.76Z" transform="translate(-14.85 -121.13)"/><path class="cls-2" d="M143.93,386.66,122.7,381c-.66-.18-1.31-.39-2-.52-2.21-.44-1.77-2.21-1.49-3.51.35-1.63,1.62-.6,2.47-.35,8.28,2.39,16.56,4.82,24.84,7.22,1.29.37,2.2.88,2.2,2.52s-.3,2.41-1.91,3.07c-8,3.24-15.9,6.69-23.88,10-.81.33-2.17,1.75-2.75-.15-.4-1.3-.66-2.81,1.39-3.58,6.16-2.32,12.24-4.83,18.35-7.28C141.08,387.91,142.2,387.4,143.93,386.66Z" transform="translate(-14.85 -121.13)"/><path class="cls-2" d="M376.93,222a39.69,39.69,0,0,1,6.71,1.82c1.29.39,2.7.79,3.52-.9a3,3,0,0,0-1-4.18c-2.21-1.52-4.5-2.89-7-.39-1.1,1.12-2.21.45-3-.28s0-1.6.65-2.27c2.43-2.65,6.32-2.66,10.55,0,3.79,2.39,4.62,4.73,3,8.52-1.23,2.79-2.56,5.54-3.74,8.34-.54,1.3-2.09,2.61,0,4.09.65.46,0,1.72-.67,1.95-1.44.48-3.26-.38-3.37-1.45-.36-3.5-2.64-2.24-4.48-2.23-5.69,0-9.3-4.16-7.62-8.83C371.5,223.44,373.49,222,376.93,222ZM378,232.26c3.7.28,5.55-1.08,6.51-3.75.22-.61.64-1.53-.34-1.64-2.49-.28-4.7-1.74-7.27-1.62a2.89,2.89,0,0,0-2.82,2.06,3,3,0,0,0,.93,3.67A6,6,0,0,0,378,232.26Z" transform="translate(-14.85 -121.13)"/><path class="cls-2" d="M139.74,360.92c-.21,2.94-.4,5.89-.63,8.83-.12,1.5.42,2.06,2,1.79,2.23-.39,4.11-1.05,4.93-3.49a5.38,5.38,0,0,0-1.65-6.41c-.35-.29-.76-.5-1.12-.78a2.16,2.16,0,0,1-.32-3.06c.59-.87,1.62,0,2.35.39,3.67,2.12,5.29,7.21,3.62,11.35-1.75,4.35-6.26,6.57-11.86,5.85s-9.13-3.86-9.8-8.43a9.31,9.31,0,0,1,11-10.47C139.95,356.83,139.95,356.83,139.74,360.92Zm-3.28,4.5c.06-.79.12-1.58.17-2.37.19-2.92-.54-3.46-3.17-2.35a5.36,5.36,0,0,0-1.85,8.5c1,1.16,2.38,2.21,3.77,1.88s.68-2.15.92-3.29A15.17,15.17,0,0,0,136.46,365.43Z" transform="translate(-14.85 -121.13)"/><path class="cls-2" d="M146.59,297.69c-.13-3.71,1.74-6.48,4.06-8.76a4.88,4.88,0,0,1,6-.66c2.77,1.53,5.59,3,8.42,4.43,1.47.74,2.82,2.59,4.71.44.37-.43,1.72.14,1.91.9.3,1.17-.39,2.71-1.29,2.88-3.56.64-2.83,3.2-3.09,5.59-.46,4.22-3.3,6.9-6.72,6.79a6.45,6.45,0,0,1-6.27-5.63c-.19-2.31.84-4.4,1.58-6.54.58-1.68,2.29-3.53.1-5.21a2.8,2.8,0,0,0-4,.33c-1.6,1.78-3.17,3.68-1.83,6.34a4.6,4.6,0,0,0,.79,1.1c1.06,1.1.1,2-.46,2.67-.93,1.15-1.57-.07-2.16-.59A4.58,4.58,0,0,1,146.59,297.69ZM160,294.33c-.81,2.31-1.67,4.41-2.28,6.58-.54,1.94-.06,3.56,2.06,4.39,2.3.91,3.44-.53,4.31-2.16C166.12,299.41,164.71,296.38,160,294.33Z" transform="translate(-14.85 -121.13)"/><path class="cls-2" d="M142.82,321.51c.13,0,.59,0,1,.08,4.14.56,4.13.57,3,4.55-.84,2.94-1.54,5.92-2.53,8.81-.67,2,.06,2.32,1.8,2.38,2.31.08,4.31-.28,5.43-2.6s1.24-4.53-.57-6.61a3.53,3.53,0,0,1-1-1.69,3,3,0,0,1,.58-2.22c.77-.74,1.39.25,2,.72,3.68,3.06,4.13,8.5,1.07,12.55s-8.42,4.7-14.24,1.93c-4.8-2.28-7-6.64-5.65-11.4C134.81,323.9,138.22,321.38,142.82,321.51Zm-.42,3.5c-2.89-.12-4.82,1.09-5.66,3.63s0,4.83,2.27,6.52c1.39,1.05,2.15.77,2.6-.88.65-2.39,1.37-4.76,2.07-7.14C144.06,325.83,143.93,324.87,142.4,325Z" transform="translate(-14.85 -121.13)"/><path class="cls-2" d="M480.34,333.13c5.47,0,9.31,3.21,9.93,8.28.59,4.86-2.31,8.59-7.64,10.08-1.79.5-2.48-.1-2.84-1.74-.71-3.19-1.61-6.35-2.25-9.56-.51-2.59-1.71-2.74-3.7-1.5-1.65,1-2.85,2.43-2.77,4.38a6.07,6.07,0,0,0,3.1,5.35,7,7,0,0,0,1.61.49,2.17,2.17,0,0,1,1.49,2.7c-.29,1.32-1.72.77-2.56.53a8.66,8.66,0,0,1-6.42-6.79c-.83-3.58,0-6.77,2.9-9.17A13.92,13.92,0,0,1,480.34,333.13Zm6.81,9.28a5.2,5.2,0,0,0-2.91-5c-1.19-.6-2.71-1.37-3.89-.57-1.35.91,0,2.27.19,3.41a35.22,35.22,0,0,0,1.09,4.63c.78,3,1.7,3.21,4,1.16A4.67,4.67,0,0,0,487.15,342.41Z" transform="translate(-14.85 -121.13)"/><path class="cls-2" d="M255.9,213.67c.11-6,3.47-9.85,7.95-10.44s9.73,3.34,10.63,7.89c.38,1.92-.62,2.1-1.81,2.41-3.4.88-6.81,1.75-10.23,2.53-1.85.42-2.13,1.31-1.26,2.88,1.06,1.9,2.45,3.29,4.77,3.27a5.73,5.73,0,0,0,5.32-3.05,13.54,13.54,0,0,0,.67-1.92,2.16,2.16,0,0,1,2.54-1.23c1.4.2.67,1.45.54,2.21a8.08,8.08,0,0,1-5.75,6.53c-3.22,1.14-6.27,1-9-1.34A13.37,13.37,0,0,1,255.9,213.67Zm9.17-7.44a5.63,5.63,0,0,0-5.48,4.61c-.41,1.7-.45,3.32,2.27,2.37,1.91-.67,3.93-1,5.9-1.5,2.81-.7,3.14-1.68,1.2-3.77A4.29,4.29,0,0,0,265.08,206.23Z" transform="translate(-14.85 -121.13)"/><path class="cls-2" d="M461.93,298.16a5.83,5.83,0,0,1-5.18,5.53c-3.12.62-6.35-1.44-8.39-5.18s-1.92-6.6.36-9.13c.54-.6,1.13-1.85,2.12-.95.71.65,1.53,1.48.7,2.91-1.83,3.13-1.26,5.69,1.38,8a3.12,3.12,0,0,0,3.72.76c1.51-.76,1.61-2.11,1.23-3.51-.58-2.18-1.36-4.32-1.86-6.52s-.52-4.55,1.79-6.07a6,6,0,0,1,7.28,0c3.6,2.43,5.43,7.82,3.58,11-.51.88-1.07,2.42-2.44,1.66-1-.53-2-1.64-.67-3.06a3.06,3.06,0,0,0,.38-3.24c-.84-2.1-1.84-4.75-4.58-4.09-3,.71-1.94,3.3-1.34,5.37C460.69,294,461.37,296.25,461.93,298.16Z" transform="translate(-14.85 -121.13)"/><path class="cls-2" d="M473,386c0-4.61,1.63-7.3,5.05-8.26.79-.22,1.95-.87,2.31.36.28,1,.47,2.08-1,2.86a5.86,5.86,0,0,0-3,7.59,3.16,3.16,0,0,0,2.84,2.53c1.64.09,2.42-1,2.84-2.42.66-2.28,1.24-4.59,2-6.83.7-2,2-3.52,4.36-3.73a5.8,5.8,0,0,1,5.77,2.81c2.62,4,1.42,10.31-2.4,12.36-.86.46-2.11,1.34-2.72.3a2.18,2.18,0,0,1,.88-3.15c2.59-1.34,2.73-3.73,2.34-6.16a2.73,2.73,0,0,0-2.34-2.58,2.64,2.64,0,0,0-2.81,2c-.67,1.79-1,3.7-1.58,5.54-1.36,4.4-3.06,5.75-6.6,5.32-3.18-.39-5.65-3.22-6-6.88C473,387.13,473,386.56,473,386Z" transform="translate(-14.85 -121.13)"/><path class="cls-2" d="M443.41,280.8a10.45,10.45,0,0,0,4.59-2.34c2.41-1.9,4.85-3.76,7.18-5.75,1-.87,1.61-.89,2.46.18a1.53,1.53,0,0,1-.27,2.54c-4.56,3.66-9.14,7.3-13.64,11-2,1.67-3.34-.67-3-1.17,1.73-2.61-.63-2-1.63-2.4-5.45-2.11-6.66-8-2.29-11.87,3.17-2.78,6.58-5.28,9.83-8,1-.86,1.73-1.76,3-.17s.08,2.34-1,3.18q-4.64,3.75-9.26,7.53a3.61,3.61,0,0,0-1.19,4.57C439,279.93,440.49,280.89,443.41,280.8Z" transform="translate(-14.85 -121.13)"/><path class="cls-2" d="M478.54,313.64c1.49,1.25,3.08,1.9,4,3.43,2.75,4.32,1.88,8.27-2.73,10.37-4,1.83-8.2,3.27-12.3,4.92-1.28.52-2,.33-2.56-1.1-.64-1.65.28-1.91,1.44-2.35,3.5-1.32,7-2.74,10.44-4.1,2.63-1,4.26-2.57,3.19-5.68a5.29,5.29,0,0,0-6.54-3.37c-3.55,1.13-7,2.58-10.5,3.91-1,.39-2,1.16-2.69-.59s0-2.09,1.37-2.62c5.18-1.95,10.3-4,15.46-6.06,1-.39,2-1.12,2.77.57S479.91,313.17,478.54,313.64Z" transform="translate(-14.85 -121.13)"/><path class="cls-2" d="M239.42,219.4c.7,3.16,2.54,6.59,3.76,10.23a5.16,5.16,0,0,1,.52,2.58c-.13.51-1.22.84-1.94,1.11-1,.37-1.07-.58-1.29-1.14q-3.31-8.38-6.55-16.78c-.22-.57-.74-1.28.15-1.77s1.9-1.21,2.45-.34c1.39,2.2,1.61.21,2.13-.47,4.33-5.62,10.13-5,12.89,1.48,1.55,3.64,2.89,7.38,4.37,11.06.51,1.27.88,2.2-.92,2.89-2,.76-2.06-.67-2.48-1.7-1.37-3.35-2.66-6.74-4-10.11-.89-2.28-2.12-4.18-5-3.46S239.24,215.72,239.42,219.4Z" transform="translate(-14.85 -121.13)"/><path class="cls-2" d="M494.56,364.76c-.2,2-.36,3.92-2.07,5.26-.86.68-1.72,2.08-2.8,1.24S489,369,490,368c1.72-1.69,1.3-3.73.94-5.75a2.75,2.75,0,0,0-2.54-2.33c-1.46-.17-2.32.88-2.6,2.2-.48,2.33-.72,4.71-1.24,7-1,4.61-4.63,6.16-8.75,3.86-3.49-2-3.87-5.41-4-8.83a6.59,6.59,0,0,1,3.87-6.64c.87-.41,1.94-1.26,2.56,0a2,2,0,0,1-.74,2.88,5.85,5.85,0,0,0-1.66,8.25,3.06,3.06,0,0,0,3,1.77,2.6,2.6,0,0,0,2.32-2.54c.29-1.79.56-3.58.89-5.36.86-4.61,2.23-6.21,5.35-6.27s6.11,2.9,6.78,6.46C494.41,363.47,494.48,364.15,494.56,364.76Z" transform="translate(-14.85 -121.13)"/><path class="cls-2" d="M167.75,267a8.25,8.25,0,0,1,3.88,1.52c3.6,2.57,7.15,5.22,10.77,7.76,1.24.87,1.25,1.59.38,2.74s-1.58.91-2.54.18c-3-2.25-6-4.49-9-6.66-2.17-1.54-4.44-2.61-6.56.09a5.37,5.37,0,0,0,.76,7.63c2.71,2.24,5.65,4.19,8.45,6.33,1,.77,2.47,1.35,1.09,3.17s-2.12.5-3-.18q-6.75-4.91-13.45-9.89c-.61-.45-1.56-.83-1-1.83.41-.73.82-2,1.92-1.5,2.26,1,1.41-.77,1.48-1.56C161.16,270.6,164.2,267,167.75,267Z" transform="translate(-14.85 -121.13)"/><path class="cls-2" d="M146.57,351.64c-2.63-.45-5.52-1-8.44-1.41-2.3-.32-4.89-2.21-6.65,1.25-.31.61-2.31.49-2.25-.88.1-2.52-1.58-2.3-3.11-2.52-1.26-.18-2.5-.22-2.19-2.18s1.4-1.52,2.7-1.33c1.61.23,3.73,1.32,3.86-1.85,0-.85,1-.69,1.67-.62,1,.11,1.45.66,1.15,1.62-.65,2.07.68,2.19,2.15,2.41,2.57.38,5.11,1,7.69,1.29,2.06.21,4.78,2.18,5.74-1.73.14-.58,1.22-.36,1.88-.19s.66.79.73,1.35C151.86,349.79,149.92,351.8,146.57,351.64Z" transform="translate(-14.85 -121.13)"/><path class="cls-2" d="M400.4,247.83c-1.43-.64-2.57-1.28-1.31-3.2,3.65-5.59,7.2-11.25,10.79-16.88.91-1.43,1.84-2.86,2.73-4.31.62-1,1.26-1.43,2.45-.66s1.28,1.49.48,2.72c-4.5,6.93-8.89,13.93-13.34,20.89C401.78,247,401.38,247.79,400.4,247.83Z" transform="translate(-14.85 -121.13)"/><path class="cls-2" d="M407.19,218.59c-.22.41-.43.81-.66,1.2l-12.2,20.87c-.23.39-.52.75-.75,1.14-.64,1.11-1.41.75-2.31.34-1.1-.51-1.19-1.15-.62-2.13q6.59-11.33,13.13-22.7c.56-1,1.16-.86,1.93-.31C406.32,217.43,407.26,217.52,407.19,218.59Z" transform="translate(-14.85 -121.13)"/><path class="cls-2" d="M142.42,311.43c-.41-1.9-1.37-3.2-1-4.7.22-1,.17-2.53,1.95-2,1.24.34,2.22.78,1.89,2.58-.72,3.92.26,5.44,4,7,2.83,1.18,5.64,2.39,8.48,3.55,1,.43,2.15.54,1.45,2.29-.6,1.51-1.31,1.57-2.57,1-5.35-2.22-10.71-4.4-16.06-6.6-.85-.35-1.65-.64-1.25-1.95C139.77,311,140.81,310.89,142.42,311.43Z" transform="translate(-14.85 -121.13)"/><path class="cls-2" d="M457.72,312.33c-.93.07-1-.87-1.43-1.45-.6-.81-.59-1.44.35-1.92q8.34-4.19,16.7-8.36c.93-.46,1.44.09,1.85.9s.81,1.69,0,2.12C469.42,306.57,463.62,309.4,457.72,312.33Z" transform="translate(-14.85 -121.13)"/><path class="cls-2" d="M482.8,299.21c-.32,1.27-1.63,1.6-2.69,1.79-1.3.23-1.68-1.14-1.73-2-.09-1.57,1.44-1.87,2.54-2.06C482.29,296.7,482.22,298.15,482.8,299.21Z" transform="translate(-14.85 -121.13)"/><path class="cls-1" d="M592.78,367.06l.72-.3-.21.79Z" transform="translate(-14.85 -121.13)"/><path class="cls-1" d="M496.13,264.84l-.26.07c-.1-.28,0-.29.23,0Z" transform="translate(-14.85 -121.13)"/><path class="cls-3" d="M529.64,291.42c.46.31.86.85.45,1.24-.57.53-.79-.22-1.06-.59Z" transform="translate(-14.85 -121.13)"/><path class="cls-3" d="M399.46,400c0-3.83.07-6.56,0-9.28-.06-1.8.66-2.26,2.4-2.31,6.48-.18,11.72,3,13.75,8.52,2.66,7.29,1.09,15.33-3.85,19.08-2.47,1.87-5.31,2.79-8.31,1.6s-3.26-4.06-3.58-6.8A84,84,0,0,1,399.46,400Z" transform="translate(-14.85 -121.13)"/><path class="cls-3" d="M413.89,370.59c0,8.37-4.87,13.4-12.3,12.82-1.33-.1-2.16-.32-2.12-1.89.17-6.69-.27-13.38.25-20.07.17-2.18,1.2-2.86,3.23-3C409.58,358,413.89,362.73,413.89,370.59Z" transform="translate(-14.85 -121.13)"/><path class="cls-3" d="M295.51,388.43c0,9.63-.42,16.33-3,22.62C289.16,419.3,279.9,422.15,274,417a24.9,24.9,0,0,1-7.42-11.05c-4.18-12.64-4.78-25.38-.4-38.06,1.89-5.48,5.17-10.16,11.57-10.63s10.09,3.82,12.81,9C294.69,374.09,295.45,382.65,295.51,388.43Z" transform="translate(-14.85 -121.13)"/><path class="cls-3" d="M434.89,260.66a5,5,0,0,1-2.9,4.49,4.47,4.47,0,0,1-5.12-.46c-2.2-1.77-4.24-3.75-6.35-5.63-.68-.61-.91-1.19-.15-2,1.6-1.69,3.08-3.5,4.72-5.14.46-.46,1.22-1.38,2-.61,2.62,2.48,5.65,4.6,7.41,7.88A5.27,5.27,0,0,1,434.89,260.66Z" transform="translate(-14.85 -121.13)"/><path class="cls-3" d="M442.64,250.68c-.06,3.48-4.1,5.71-6.77,3.87a62.32,62.32,0,0,1-6.13-5.33c-.83-.75-.83-1.52.13-2.25.53-.41.89-1.05,1.43-1.44,1.44-1,2.46-4.22,4-3.08C438.34,244.6,441.58,247,442.64,250.68Z" transform="translate(-14.85 -121.13)"/><path class="cls-3" d="M184.07,243.91a9.41,9.41,0,0,1,13.18-8.53c5,2.28,7.85,6.46,8.72,11.76.92,5.57-5.16,11.17-10.73,10.17S184,249.55,184.07,243.91Z" transform="translate(-14.85 -121.13)"/><path class="cls-3" d="M229.53,231.88a.79.79,0,0,1,0,1.17l-.47-.79Z" transform="translate(-14.85 -121.13)"/><path class="cls-3" d="M219,238.3l.43.31-.27.16-.11-.51Z" transform="translate(-14.85 -121.13)"/><path class="cls-3" d="M293.18,211.24c0,3.88-2,6.74-4.69,7.1-3,.4-5.34-1.49-6.34-5.34a11,11,0,0,1,.32-7.62,5.06,5.06,0,0,1,4.57-3,5,5,0,0,1,4.7,2.8A15.8,15.8,0,0,1,293.18,211.24Z" transform="translate(-14.85 -121.13)"/><path class="cls-3" d="M378,232.26a6,6,0,0,1-3-1.27,3,3,0,0,1-.93-3.67,2.89,2.89,0,0,1,2.82-2.06c2.58-.12,4.78,1.34,7.27,1.62,1,.11.56,1,.34,1.64C383.59,231.18,381.74,232.54,378,232.26Z" transform="translate(-14.85 -121.13)"/><path class="cls-3" d="M136.46,365.43a15.46,15.46,0,0,1-.15,2.37c-.24,1.14.57,2.94-.92,3.29s-2.76-.72-3.77-1.88a5.36,5.36,0,0,1,1.85-8.5c2.63-1.11,3.35-.57,3.17,2.35C136.58,363.85,136.52,364.64,136.46,365.43Z" transform="translate(-14.85 -121.13)"/><path class="cls-3" d="M160,294.33c4.67,2,6.08,5.07,4.09,8.82-.87,1.64-2,3.07-4.31,2.16-2.12-.84-2.6-2.46-2.06-4.39C158.37,298.74,159.23,296.64,160,294.33Z" transform="translate(-14.85 -121.13)"/><path class="cls-3" d="M142.4,325c1.53-.14,1.66.82,1.28,2.13-.69,2.38-1.42,4.75-2.07,7.14-.45,1.66-1.21,1.93-2.6.88-2.24-1.69-3.15-3.86-2.27-6.52S139.51,324.89,142.4,325Z" transform="translate(-14.85 -121.13)"/><path class="cls-3" d="M487.15,342.41a4.67,4.67,0,0,1-1.56,3.63c-2.27,2.05-3.19,1.81-4-1.16a35.22,35.22,0,0,1-1.09-4.63c-.14-1.14-1.54-2.5-.19-3.41,1.18-.8,2.7,0,3.89.57A5.2,5.2,0,0,1,487.15,342.41Z" transform="translate(-14.85 -121.13)"/><path class="cls-3" d="M265.08,206.23a4.29,4.29,0,0,1,3.9,1.71c1.94,2.09,1.61,3.07-1.2,3.77-2,.49-4,.83-5.9,1.5-2.72,1-2.69-.67-2.27-2.37A5.63,5.63,0,0,1,265.08,206.23Z" transform="translate(-14.85 -121.13)"/></svg>